<?xml version="1.0" encoding="UTF-8"?>
<svg width="687px" height="166px" viewBox="0 0 687 166" version="1.1" xmlns="http://www.w3.org/2000/svg" xmlns:xlink="http://www.w3.org/1999/xlink">
    <!-- Generator: Sketch 43.2 (39069) - http://www.bohemiancoding.com/sketch -->
    <title>Slice</title>
    <desc>Created with Sketch.</desc>
    <defs></defs>
    <g id="Page-1" stroke="none" stroke-width="1" fill="none" fill-rule="evenodd">
        <g id="Group">
            <polygon id="Line" fill="#EAD85C" points="277.369605 15 249 148.933854 645.798087 150.609375 672 15"></polygon>
            <g id="Group-6" transform="translate(281.000000, 36.000000)" fill="#0B1016">
                <path d="M0.480000286,94.896 C1.00266957,92.7306558 2.04799245,91.0693391 3.61600029,89.912 C5.18400813,88.7546609 7.01332317,88.176 9.10400029,88.176 C11.2693444,88.176 13.117326,88.7919938 14.6480003,90.024 C16.1786746,91.2560062 17.7653254,93.2159866 19.4080003,95.904 C20.9760081,94.6346603 22.487993,93.3653397 23.9440003,92.096 C25.4000076,90.8266603 26.7999936,89.4826738 28.1440003,88.064 C26.7999936,80.0746267 25.418674,72.0667068 24.0000003,64.04 C22.5813265,56.0132932 21.200007,48.0427062 19.8560003,40.128 C19.6319992,38.7839933 19.314669,37.9440017 18.9040003,37.608 C18.4933316,37.2719983 17.9893366,37.104 17.3920003,37.104 C16.869331,37.104 16.2346707,37.3279978 15.4880003,37.776 C14.7413299,38.2240022 13.9573377,38.8213296 13.1360003,39.568 L10.5600003,36.208 C13.9946841,32.0266458 17.1679857,28.8906771 20.0800003,26.8 C22.9920148,24.7093229 25.9039857,23.664 28.8160003,23.664 C31.952016,23.664 34.1546606,24.6159905 35.4240003,26.52 C36.69334,28.4240095 37.551998,31.3546469 38.0000003,35.312 C38.7466707,41.5093643 39.4746634,47.6879692 40.1840003,53.848 C40.8933372,60.0080308 41.6213299,66.1866357 42.3680003,72.384 C44.0853422,67.0826402 45.63466,61.7626934 47.0160003,56.424 C48.3973405,51.0853066 49.7599936,45.7280269 51.1040003,40.352 C52.1493388,36.1706458 53.1759952,32.8666788 54.1840003,30.44 C55.1920053,28.0133212 56.38666,26.2773386 57.7680003,25.232 C59.1493405,24.1866614 60.9599891,23.664 63.2000003,23.664 C65.0666763,23.664 66.7839924,24.2799938 68.3520003,25.512 C69.9200081,26.7440062 70.7040003,28.4426558 70.7040003,30.608 C70.7040003,32.7733442 70.2560048,34.8826564 69.3600003,36.936 C68.4639958,38.9893436 67.306674,41.2479877 65.8880003,43.712 C64.6933276,45.8026771 63.3306746,48.1359871 61.8000003,50.712 C60.269326,53.2880129 58.6080092,55.8826536 56.8160003,58.496 C54.7253232,61.4826816 52.5600115,64.6933162 50.3200003,68.128 C48.0799891,71.5626838 45.31735,75.3333128 42.0320003,79.44 C40.1653243,81.9040123 38.130678,84.4426536 35.9280003,87.056 C33.7253226,89.6693464 31.056016,92.6186502 27.9200003,95.904 C25.3813209,98.4426794 22.7120143,100.570658 19.9120003,102.288 C17.1119863,104.005342 14.106683,104.864 10.8960003,104.864 C8.13331981,104.864 5.70667741,104.024008 3.61600029,102.344 C1.52532317,100.663992 0.480000286,98.1813498 0.480000286,94.896 Z M107.224,30.272 C105.282657,30.272 103.229344,31.3919888 101.064,33.632 C98.8986561,35.8720112 97.0320081,38.821315 95.4640002,42.48 C93.8959924,46.138685 93.0000014,50.1333117 92.7760002,54.464 C97.3306897,52.671991 100.895987,50.6933442 103.472,48.528 C106.048013,46.3626558 107.877328,44.1226782 108.96,41.808 C110.042672,39.4933218 110.584,37.3280101 110.584,35.312 C110.584,33.5946581 110.248004,32.3253374 109.576,31.504 C108.903997,30.6826626 108.120005,30.272 107.224,30.272 Z M94.4560002,81.792 C88.2586359,81.792 83.2560193,79.8506861 79.4480002,75.968 C75.6399812,72.0853139 73.7360002,66.9706984 73.7360002,60.624 C73.7360002,55.6213083 74.5946583,50.8986889 76.3120002,46.456 C78.0293422,42.0133111 80.4373181,38.0746838 83.5360002,34.64 C86.6346824,31.2053162 90.311979,28.517343 94.5680002,26.576 C98.8240215,24.634657 103.490642,23.664 108.568,23.664 C114.093361,23.664 118.349319,24.8586547 121.336,27.248 C124.322682,29.6373453 125.816,32.698648 125.816,36.432 C125.816,41.5093587 122.997362,46.0079804 117.36,49.928 C111.722639,53.8480196 103.640053,57.0399877 93.1120002,59.504 C93.6346695,62.4906816 94.8293242,64.7679922 96.6960002,66.336 C98.5626762,67.9040078 100.914653,68.688 103.752,68.688 C106.962683,68.688 109.837321,67.9040078 112.376,66.336 C114.91468,64.7679922 117.117324,62.8266782 118.984,60.512 L122.344,62.864 C120.850659,65.8506816 118.77868,68.7999854 116.128,71.712 C113.47732,74.6240146 110.341352,77.0319905 106.72,78.936 C103.098649,80.8400095 99.0106897,81.792 94.4560002,81.792 Z M140.048,81.792 C137.061319,81.792 134.728009,81.0826738 133.048,79.664 C131.367992,78.2453262 130.528,76.2666794 130.528,73.728 C130.528,71.935991 130.751998,69.7893458 131.2,67.288 C131.648002,64.7866542 132.282663,61.5946861 133.104,57.712 L138.032,34.752 C138.778671,31.2426491 139.52533,27.6960179 140.272,24.112 C141.018671,20.5279821 141.690664,16.9813509 142.288,13.472 L135.904,12.688 L136.576,8.096 L162.224,0.368 L164.128,1.936 L150.576,64.208 C150.127998,66.000009 149.904,67.3813285 149.904,68.352 C149.904,69.8453408 150.463995,70.592 151.584,70.592 C153.002674,70.592 155.317317,68.4266883 158.528,64.096 L162.224,66.448 C160.805326,69.0613464 159.032011,71.5439882 156.904,73.896 C154.77599,76.2480118 152.293348,78.1519927 149.456,79.608 C146.618653,81.0640073 143.482684,81.792 140.048,81.792 Z M176.904,81.792 C173.917319,81.792 171.584009,81.0826738 169.904,79.664 C168.223992,78.2453262 167.384,76.2666794 167.384,73.728 C167.384,71.935991 167.607998,69.7893458 168.056,67.288 C168.504002,64.7866542 169.138663,61.5946861 169.96,57.712 L174.888,34.752 C175.634671,31.2426491 176.38133,27.6960179 177.128,24.112 C177.874671,20.5279821 178.546664,16.9813509 179.144,13.472 L172.76,12.688 L173.432,8.096 L199.08,0.368 L200.984,1.936 L187.432,64.208 C186.983998,66.000009 186.76,67.3813285 186.76,68.352 C186.76,69.8453408 187.319995,70.592 188.44,70.592 C189.858674,70.592 192.173317,68.4266883 195.384,64.096 L199.08,66.448 C197.661326,69.0613464 195.888011,71.5439882 193.76,73.896 C191.63199,76.2480118 189.149348,78.1519927 186.312,79.608 C183.474653,81.0640073 180.338684,81.792 176.904,81.792 Z M225.632,81.792 C221.375979,81.792 217.512017,81.0266743 214.04,79.496 C210.567983,77.9653257 207.805344,75.5760162 205.752,72.328 C203.698656,69.0799838 202.672,64.8800258 202.672,59.728 C202.672,55.1733106 203.511992,50.7493548 205.192,46.456 C206.872008,42.1626452 209.242651,38.2986838 212.304,34.864 C215.365349,31.4293162 218.986646,28.7040101 223.168,26.688 C227.349354,24.6719899 231.903975,23.664 236.832,23.664 C241.162688,23.664 245.02665,24.4293257 248.424,25.96 C251.82135,27.4906743 254.52799,29.8613173 256.544,33.072 C258.56001,36.2826827 259.568,40.5013072 259.568,45.728 C259.568,50.2826894 258.728008,54.7253117 257.048,59.056 C255.367992,63.3866883 253.016015,67.2506497 249.992,70.648 C246.967985,74.0453503 243.384021,76.7519899 239.24,78.768 C235.095979,80.7840101 230.560025,81.792 225.632,81.792 Z M226.976,75.072 C228.99201,75.072 230.821325,74.0266771 232.464,71.936 C234.106675,69.8453229 235.525327,67.0826838 236.72,63.648 C237.914673,60.2133162 238.847997,56.4613537 239.52,52.392 C240.192003,48.3226463 240.528,44.3093531 240.528,40.352 C240.528,36.3946469 240.042672,33.7440067 239.072,32.4 C238.101329,31.0559933 236.832008,30.384 235.264,30.384 C233.24799,30.384 231.400008,31.4479894 229.72,33.576 C228.039992,35.7040106 226.602673,38.4853162 225.408,41.92 C224.213327,45.3546838 223.29867,49.0506469 222.664,53.008 C222.02933,56.9653531 221.712,60.773315 221.712,64.432 C221.712,68.7626883 222.234662,71.6186598 223.28,73 C224.325339,74.3813402 225.557326,75.072 226.976,75.072 Z M280.072,80 L274.248,40.128 C274.098666,38.7839933 273.800002,37.9440017 273.352,37.608 C272.903998,37.2719983 272.381336,37.104 271.784,37.104 C271.261331,37.104 270.62667,37.3279978 269.88,37.776 C269.13333,38.2240022 268.349337,38.8213296 267.528,39.568 L264.952,36.208 C268.386684,32.0266458 271.559985,28.8906771 274.472,26.8 C277.384015,24.7093229 280.295985,23.664 283.208,23.664 C286.344016,23.664 288.695992,24.6159905 290.264,26.52 C291.832008,28.4240095 292.765332,31.3546469 293.064,35.312 C293.437335,39.6426883 293.829331,43.9546452 294.24,48.248 C294.650669,52.5413548 295.042665,56.8159787 295.416,61.072 C298.104013,55.3226379 300.810653,49.5733621 303.536,43.824 C306.261347,38.0746379 308.967987,32.3253621 311.656,26.576 L323.528,26.576 C324.498672,33.0720325 325.450662,39.5679675 326.384,46.064 C327.317338,52.5600325 328.269329,59.0559675 329.24,65.552 C331.25601,62.7146525 333.178658,59.8400146 335.008,56.928 C336.837343,54.0159854 338.647991,51.0293486 340.44,47.968 L338.984,43.936 C338.311997,42.143991 337.640003,40.314676 336.968,38.448 C336.295997,36.581324 335.96,34.7893419 335.96,33.072 C335.96,29.7119832 336.986656,27.2106749 339.04,25.568 C341.093344,23.9253251 343.613318,23.104 346.6,23.104 C347.645339,23.104 348.653329,23.2719983 349.624,23.608 C350.594672,23.9440017 351.415997,24.3359978 352.088,24.784 C352.909337,25.8293386 353.450665,26.9306609 353.712,28.088 C353.973335,29.2453391 354.104,30.8693229 354.104,32.96 C354.104,34.752009 353.78667,36.6559899 353.152,38.672 C352.51733,40.6880101 351.304009,43.2639843 349.512,46.4 C346.74932,51.3280246 343.165355,56.7226374 338.76,62.584 C334.354645,68.4453626 329.389361,74.2506379 323.864,80 L313.784,81.12 L312.44,80 C311.69333,74.9226413 310.909337,69.8640252 310.088,64.824 C309.266663,59.7839748 308.445337,54.7626917 307.624,49.76 C305.159988,54.7626917 302.696012,59.7839748 300.232,64.824 C297.767988,69.8640252 295.304012,74.9226413 292.84,80 L281.416,81.12 L280.072,80 Z" id="yellow"></path>
            </g>
            <g id="Group-5" transform="translate(26.000000, 31.000000)" fill="#0B1016">
                <path d="M0.760000191,78.728 C0.760000191,76.935991 0.983997951,74.8080123 1.43200019,72.344 C1.88000243,69.8799877 2.25333203,67.9386738 2.55200019,66.52 L7.70400019,41.544 L1.09600019,40.76 L1.88000019,36.168 L27.6400002,28.44 L29.5440002,30.12 L20.9200002,69.208 C20.471998,71.000009 20.2480002,72.3813285 20.2480002,73.352 C20.2480002,74.8453408 20.8079946,75.592 21.9280002,75.592 C23.346674,75.592 25.6613175,73.4266883 28.8720002,69.096 L32.5680002,71.448 C31.1493264,74.0613464 29.3760108,76.5439882 27.2480002,78.896 C25.1199896,81.2480118 22.6373477,83.1519927 19.8000002,84.608 C16.9626527,86.0640073 13.826684,86.792 10.3920002,86.792 C7.40531859,86.792 5.05334211,86.0826738 3.33600019,84.664 C1.61865827,83.2453262 0.760000191,81.2666794 0.760000191,78.728 Z M22.6000002,19.928 C20.285322,19.928 18.1946762,19.1626743 16.3280002,17.632 C14.4613242,16.1013257 13.5280002,14.0293464 13.5280002,11.416 C13.5280002,8.27998432 14.647989,5.74134304 16.8880002,3.8 C19.1280114,1.85865696 21.6293197,0.888 24.3920002,0.888 C27.0053466,0.888 29.1519918,1.69065864 30.8320002,3.296 C32.5120086,4.90134136 33.3520002,6.89865472 33.3520002,9.288 C33.3520002,12.4240157 32.2693444,14.9813234 30.1040002,16.96 C27.938656,18.9386766 25.4373477,19.928 22.6000002,19.928 Z M56.0960001,85 L38.7360001,85.896 L36.9440001,84.44 L45.7920001,41.544 L39.2960001,40.76 L40.0800001,36.168 L64.7200001,28.44 L67.0720001,30.456 L65.1680001,40.312 C73.1573734,32.5466278 80.6986313,28.664 87.7920001,28.664 C90.2560125,28.664 92.3839912,29.4853251 94.1760001,31.128 C95.9680091,32.7706749 96.8640001,35.2719832 96.8640001,38.632 C96.8640001,40.0506738 96.7706677,41.5253257 96.5840001,43.056 C96.3973325,44.5866743 96.0800024,46.2106581 95.6320001,47.928 L90.2560001,69.208 C90.031999,70.1040045 89.8453342,70.8693302 89.6960001,71.504 C89.5466661,72.1386698 89.4720001,72.7546637 89.4720001,73.352 C89.4720001,74.8453408 89.9946616,75.592 91.0400001,75.592 C92.608008,75.592 94.9973174,73.4266883 98.2080001,69.096 L101.904,71.448 C100.485326,74.0613464 98.6560113,76.5439882 96.4160001,78.896 C94.1759889,81.2480118 91.6186812,83.1519927 88.7440001,84.608 C85.8693191,86.0640073 82.714684,86.792 79.2800001,86.792 C76.2933185,86.792 73.978675,86.0826738 72.3360001,84.664 C70.6933253,83.2453262 69.8720001,81.2666794 69.8720001,78.728 C69.8720001,76.935991 70.0959979,75.0320101 70.5440001,73.016 C70.9920024,70.9999899 71.4026649,69.2826738 71.7760001,67.864 L75.6960001,52.296 C76.5920046,48.9359832 77.0400001,46.322676 77.0400001,44.456 C77.0400001,43.5599955 76.7973359,42.8693358 76.3120001,42.384 C75.8266644,41.8986642 75.2106705,41.656 74.4640001,41.656 C73.0453264,41.656 71.4213426,42.1039955 69.5920001,43 C67.7626577,43.8960045 65.8400102,45.314657 63.8240001,47.256 L60.9120001,60.808 C60.0159957,64.8400202 59.1946705,68.8533134 58.4480001,72.848 C57.7013297,76.8426866 56.9173376,80.8933128 56.0960001,85 Z M127.56,86.792 C123.52798,86.792 119.981349,85.896009 116.92,84.104 C113.858651,82.311991 111.450676,79.8293492 109.696,76.656 C107.941325,73.4826508 107.064,69.7306883 107.064,65.4 C107.064,60.5466424 107.903992,55.9360218 109.584,51.568 C111.264008,47.1999782 113.634651,43.2800174 116.696,39.808 C119.757349,36.3359826 123.397312,33.6106766 127.616,31.632 C131.834688,29.6533234 136.482641,28.664 141.56,28.664 C145.890688,28.664 149.567985,29.6719899 152.592,31.688 C155.616015,33.7040101 157.650662,36.4666491 158.696,39.976 C158.621333,42.2906782 157.725342,44.3066581 156.008,46.024 C154.290658,47.7413419 152.125346,48.6 149.512,48.6 C147.421323,48.6 145.760006,47.9093402 144.528,46.528 C143.295994,45.1466598 142.232005,43.5973419 141.336,41.88 L137.864,35.16 C134.951986,37.4000112 132.637342,39.9946519 130.92,42.944 C129.202658,45.8933481 127.989337,48.9546508 127.28,52.128 C126.570663,55.3013492 126.216,58.3439854 126.216,61.256 C126.216,65.5866883 127.261323,68.7413234 129.352,70.72 C131.442677,72.6986766 134.279982,73.688 137.864,73.688 C139.954677,73.688 142.306654,73.0346732 144.92,71.728 C147.533346,70.4213268 150.034655,68.3493475 152.424,65.512 L155.672,67.864 C154.103992,71.0000157 151.957347,74.0239854 149.232,76.936 C146.506653,79.8480146 143.314685,82.2186575 139.656,84.048 C135.997315,85.8773425 131.965355,86.792 127.56,86.792 Z M179.76,63.944 C179.76,67.5280179 180.282661,70.0666592 181.328,71.56 C182.373339,73.0533408 183.829324,73.8 185.696,73.8 C186.96534,73.8 188.23466,73.4266704 189.504,72.68 C190.77334,71.9333296 191.930661,71.0746715 192.976,70.104 C193.125334,69.5066637 193.255999,68.9093363 193.368,68.312 C193.480001,67.7146637 193.573333,67.1173363 193.648,66.52 L199.808,38.52 C197.941324,37.6986626 196.112009,37.288 194.32,37.288 C193.349329,37.288 192.378672,37.4746648 191.408,37.848 C190.437329,38.2213352 189.392006,38.9306614 188.272,39.976 C186.554658,41.4693408 185.06134,43.653319 183.792,46.528 C182.52266,49.402681 181.533337,52.4266508 180.824,55.6 C180.114663,58.7733492 179.76,61.5546547 179.76,63.944 Z M203.168,86.792 C199.957317,86.792 197.381343,85.858676 195.44,83.992 C193.498657,82.125324 192.528,79.362685 192.528,75.704 C189.541318,78.9146827 186.330684,81.5653229 182.896,83.656 C179.461316,85.7466771 176.10135,86.792 172.816,86.792 C170.725323,86.792 168.746676,86.2693386 166.88,85.224 C165.013324,84.1786614 163.501339,82.4426788 162.344,80.016 C161.186661,77.5893212 160.608,74.3226872 160.608,70.216 C160.608,66.1839798 161.391992,62.1706866 162.96,58.176 C164.528008,54.1813134 166.655987,50.4106844 169.344,46.864 C172.032013,43.3173156 175.07465,40.181347 178.472,37.456 C181.86935,34.730653 185.397315,32.5840078 189.056,31.016 C192.714685,29.4479922 196.261316,28.664 199.696,28.664 C201.637343,28.664 203.485325,28.9626637 205.24,29.56 C206.994675,30.1573363 208.655992,31.0906603 210.224,32.36 L219.072,28.664 L220.864,30.232 L211.904,69.208 C211.679999,70.1040045 211.493334,70.8693302 211.344,71.504 C211.194666,72.1386698 211.12,72.7546637 211.12,73.352 C211.12,74.8453408 211.717327,75.592 212.912,75.592 C213.808005,75.592 214.759995,75.0133391 215.768,73.856 C216.776005,72.6986609 218.101325,71.0746771 219.744,68.984 L223.44,71.336 C222.17066,73.7253453 220.509344,76.1146547 218.456,78.504 C216.402656,80.8933453 214.069346,82.8719922 211.456,84.44 C208.842654,86.0080078 206.080015,86.792 203.168,86.792 Z" id="inca"></path>
            </g>
        </g>
    </g>
</svg>