<?xml version="1.0" encoding="UTF-8"?>
<svg width="2217px" height="862px" viewBox="0 0 2217 862" version="1.1" xmlns="http://www.w3.org/2000/svg" xmlns:xlink="http://www.w3.org/1999/xlink">
    <!-- Generator: Sketch 43.2 (39069) - http://www.bohemiancoding.com/sketch -->
    <title>mgb</title>
    <desc>Created with Sketch.</desc>
    <defs></defs>
    <g id="Page-1" stroke="none" stroke-width="1" fill="none" fill-rule="evenodd">
        <g id="mgb">
            <g id="bodyWrap" fill="#EFEFEF">
                <path d="M163.280024,3.26849658e-13 C184.660338,3.41886429e-13 2046.63384,3.26849658e-13 2060.30536,3.26849658e-13 C2151.0271,38.2582402 2201.79982,249.563024 2201.79982,433.500376 C2201.79982,507.2789 2195.45082,555.642782 2212.35041,581.593059 C2221.01914,593.228994 2212.35041,645.5907 2212.35041,645.5907 C2173.07331,674.345153 2126.75962,818.078048 2087.93255,856.616619 C2059.11431,867.227296 150.502855,856.616619 131.395327,856.616619 C58.253836,826.972468 -2.69448308e-13,636.237876 -3.00204306e-13,424.158584 C-3.00204306e-13,212.079292 91.1726311,16.5968115 163.280024,3.26849658e-13 Z" id="body-wrap"></path>
            </g>
            <g id="bodyFill" transform="translate(128.000000, 26.000000)" fill="#354550">
                <path d="M106.222231,787.690096 C167.008131,830.597796 724.222231,814.690096 782.222231,814.690096 C840.222231,814.690096 1862.43403,818.720596 1886.22223,799.690096 C1976.22223,727.690096 1960.22223,423.690096 1960.22223,401.690096 C1960.22223,379.690096 1978.22223,95.6900964 1882.22223,13.6900964 C1866.71373,0.44319638 846.222231,-2.30990362 784.222231,1.69009638 C738.274331,4.65449638 204.222231,-8.30990362 104.222231,31.6900964 C7.92883058,70.2073964 -1.77776942,325.690096 0.222230579,409.690096 C2.74933058,515.829596 4.22223058,715.690096 106.222231,787.690096 Z" id="body-fill"></path>
            </g>
            <g id="bodywork-and-exterior" transform="translate(44.000000, 25.000000)" stroke-width="4">
                <path d="M1094,276.5 C1094,244.7432 1119.7432,219 1151.5,219 L1266.5,219 C1298.2568,219 1324,244.7432 1324,276.5 L1324,534.5 C1324,566.2568 1298.2568,592 1266.5,592 L1151.5,592 C1119.7432,592 1094,566.2568 1094,534.5 L1094,276.5 Z M1866,144 C1920,162 1924.3734,377.974 1926,404 C1928,436 1912,656 1866,676 C1842.7998,686.087 1670,666 1658,644 C1646,622 1644,422 1644,404 C1644,386 1646,188 1664,174 C1682,160 1826.9308,130.9769 1866,144 Z M928,771 C924,766 1036,701 1044,699 C1052,697 1548,705 1563,707 C1578,709 1717,739 1720,746 C1723,753 1713.0736,764.7805 1696,766 C1668,768 932,776 928,771 Z M928,50.2998 C932,45.2998 1668,53.2998 1696,55.2998 C1713.0736,56.5193 1723,68.2998 1720,75.2998 C1717,82.2998 1578,112.2998 1563,114.2998 C1548,116.2998 1052,124.2998 1044,122.2998 C1036,120.2998 924,55.2998 928,50.2998 Z M882,56 C902.8936,44.1906 1030.4918,115.5113 1020,130 C978,188 982,376 984,406 C986,436 990,642 1022,688 C1030.0762,699.6094 895.4849,773.3007 884,768 C832,744 814,514 812,410 C809.9615,304.0007 836,82 882,56 Z M184,788 C244.7859,830.9077 802,815 860,815 C918,815 1940.2118,819.0305 1964,800 C2054,728 2038,424 2038,402 C2038,380 2056,96 1960,14 C1944.4915,0.7531 924,-2 862,2 C816.0521,4.9644 282,-8 182,32 C85.7066,70.5173 76,326 78,410 C80.5271,516.1395 82,716 184,788 Z" id="body" stroke="#000000" fill="#FFFFFF" fill-rule="nonzero" opacity="0.851"></path>
                <path d="M108,160 C108,160 176.6117,159.6942 192,152 C196,150 213.0688,28.6609 197,30 C149,34 100,136 108,160 Z" id="Right-headlight-cowl" stroke="#000000" opacity="0.851"></path>
                <path d="M108,659.989 C108,659.989 176.6117,660.2949 192,667.989 C196,669.989 213.0688,791.3281 197,789.989 C149,785.989 100,683.989 108,659.989 Z" id="Left-headlight-cowl" stroke="#000000" opacity="0.851"></path>
                <path d="M96,209 C96,209 598,88 830,80 C851.9871,79.2418 850,52 862,46 C874,40 894,40 894,40 C894,40 1914,44 1970,56" id="Right-bonnet-joint" stroke="#000000" opacity="0.851"></path>
                <path d="M100,616 C100,616 598,734 830,742 C851.9871,742.7582 850,770 862,776 C874,782 894,782 894,782 C894,782 1914,778 1970,766" id="Left-bonnet-joint" stroke="#000000" opacity="0.851"></path>
                <path d="M768,87 C754,111 724.1225,307.062 728,404 C732,504 750,704 770,734" id="Rear-bonner-joint" stroke="#000000" opacity="0.851"></path>
                <path d="M748,296 L743.4609,408.007 L750,526 C750,526 783.5951,526.4537 784,522 C787,489 785,322.0907 785,300 C785,296 748,296 748,296 Z" id="Air-intake" stroke="#000000" opacity="0.851"></path>
                <path d="M1614,408 C1614,408 1606,168 1636,144 C1666,120 1948.3601,88.6314 1966,94 C1981.3334,98.6667 1986,98.6667 2000,116 C2021.9465,143.1719 2032,382 2034,400 C2036,418 2018,686 2006,704 C1994,722 1988,718 1972,724 C1956,730 1668,704 1638,674 C1608,644 1618,438 1614,408 Z" id="Rear-hatch" stroke="#000000" opacity="0.851"></path>
                <path d="M192,20 C192,20 142.188,7.3905 119,26 C-38,152 -34,644 101,790 C118.0133,808.3996 170,804 188,804 C198,804 155,778 155,778 C155,778 103,668 90,612 C84.5729,588.6217 73,410 73,410 C73,410 84.0144,225.636 88,204 C95,166 130.1591,57.0341 153,38 C177,18 192,20 192,20 Z" id="Front-bumper" stroke="#000000" fill="#111111" fill-rule="nonzero" opacity="0.851"></path>
                <path d="M1971.9216,20 C1971.9216,20 1987.3984,14.754 2014.9216,26 C2107.9216,64 2101.9216,323.7885 2101.9216,409 C2101.9216,478 2099.9216,760 2032.9216,790 C2010.0498,800.2411 1993.9216,804 1975.9216,804 C1965.9216,804 1998.9216,778 1998.9216,778 C1998.9216,778 2036,666 2039.9216,612 C2041.6599,588.0631 2046.9216,410 2046.9216,410 C2046.9216,410 2039.9856,221.636 2036,200 C2029,162 2003.7625,57.0341 1980.9216,38 C1956.9216,18 1971.9216,20 1971.9216,20 Z" id="Rear-bumper" stroke="#000000" fill="#111111" fill-rule="nonzero" opacity="0.851"></path>
                <path d="M192,43.5 C192,42.6716 192.6716,42 193.5,42 L196.5,42 C197.3284,42 198,42.6716 198,43.5 L198,104.5 C198,105.3284 193.5,146 193.5,146 C192.6716,146 192,145.3284 192,144.5 L192,43.5 Z" id="Right-headlight2" stroke="#000000" fill="#FFFFFF" fill-rule="nonzero" opacity="0.851"></path>
                <path d="M190,42 C181,42 175,67.8037 175,91 C175,114.1963 178.5,146.5 190,146" id="Right-headlight-cover2" stroke="#000000" fill="#FFFFFF" fill-rule="nonzero" opacity="0.851"></path>
                <path d="M192,774.5063 C192,775.3347 192.6716,776.0063 193.5,776.0063 L196.5,776.0063 C197.3284,776.0063 198,775.3347 198,774.5063 L198,713.5063 C198,712.6779 193.5,672.0063 193.5,672.0063 C192.6716,672.0063 192,672.6779 192,673.5063 L192,774.5063 Z" id="Left-headlight2" stroke="#000000" fill="#FFFFFF" fill-rule="nonzero" opacity="0.851"></path>
                <path d="M190,776.0063 C181,776.0063 176,747.2026 176,724.0063 C176,700.8101 178.5,671.5063 190,672.0063" id="Left-headlight-cover2" stroke="#000000" fill="#FFFFFF" fill-rule="nonzero" opacity="0.851"></path>
                <g id="Right-rear-light" transform="translate(1959.000000, 8.000000)" stroke="#000000" fill="#FFFFFF" fill-rule="nonzero" opacity="0.851">
                    <polygon id="Shape" points="0 0 28 0 38 11.3333 38 47.1515 28 58 0 58"></polygon>
                    <polygon id="Shape" points="28 0 38 11.3333 38 47.1515 28 58"></polygon>
                </g>
                <g id="Left-rear-light" transform="translate(1959.000000, 748.000000)" stroke="#000000" fill="#FFFFFF" fill-rule="nonzero" opacity="0.851">
                    <polygon id="Shape" points="0 0 28 0 38 11.3333 38 47.1515 28 58 0 58"></polygon>
                    <polygon id="Shape" points="28 0 38 11.3333 38 47.1515 28 58"></polygon>
                </g>
                <path d="M856,2 C854,26 1032,118 1032,118" id="Right-gutter" stroke="#000000" opacity="0.851"></path>
                <path d="M856,817 C854,793 1032,702 1032,702" id="Left-gutter" stroke="#000000" opacity="0.851"></path>
                <path d="M1388,0 C1388,0 1382,26 1366,38 C1350,50 1358,56 1358,56" id="Right-door-joint" stroke="#000000" opacity="0.851"></path>
                <path d="M1388,812 C1388,812 1382,786 1366,774 C1350,762 1358,756 1358,756" id="Left-door-joint" stroke="#000000" opacity="0.851"></path>
                <path d="M1628,408 C1628,424 1633.3334,642.6667 1646,656 C1655.9332,666.4561 1867.7042,712.6849 1904,690 C1968,650 1960,448 1960,412 C1960,376 1974,136 1886,126 C1847.6206,121.6387 1659.2035,136.6484 1648,156 C1633.3334,181.3333 1628,392 1628,408 Z" id="Rear-window-surround" stroke="#000000" opacity="0.502"></path>
                <path d="M2012,133 C2012,118.0881 2014.6863,106 2018,106 C2021.3137,106 2024,118.0881 2024,133 C2024,147.9119 2021.3137,160 2018,160 C2014.6863,160 2012,147.9119 2012,133 Z" id="Fuel-cap" stroke="#000000" fill="#FFFFFF" fill-rule="nonzero" opacity="0.851"></path>
                <rect id="Rear-license-plate" stroke="#000000" fill="#FFFFFF" fill-rule="nonzero" opacity="0.851" x="2039" y="308" width="11" height="188"></rect>
                <path d="M1346,118.2998 L1355,53.2998 L1346,118.2998 Z M995,50.2998 L1079,122.2998 L995,50.2998 Z M928,50.2998 C924,55.2998 1036,120.2998 1044,122.2998 C1052,124.2998 1548,116.2998 1563,114.2998 C1578,112.2998 1717,82.2998 1720,75.2998 C1723,68.2998 1713.0736,56.5193 1696,55.2998 C1668,53.2998 932,45.2998 928,50.2998 Z" id="Right-side-window" stroke="#000000" opacity="0.851"></path>
                <path d="M1346,703 L1355,768 L1346,703 Z M995,771 L1079,699 L995,771 Z M928,771 C924,766 1036,701 1044,699 C1052,697 1548,705 1563,707 C1578,709 1717,739 1720,746 C1723,753 1713.0736,764.7805 1696,766 C1668,768 932,776 928,771 Z" id="Left-side-window" stroke="#000000" opacity="0.851"></path>
                <path d="M785.3408,286.3343 L806.162,295.8409 L810.1346,238.2439 L829.1403,175.1993 L837.0295,168.7474 L842.0499,236.5917 L846.5848,166.0309 L864.3478,80.4845 L839.3564,159.2624 C839.3564,159.2624 826.1762,171.6962 825.5276,171.8121 C824.8789,171.9281 785.3408,286.3343 785.3408,286.3343 Z" id="Right-wiper" stroke="#000000" fill="#FFFFFF" fill-rule="nonzero" opacity="0.851"></path>
                <path d="M795.663,547.3578 L817.4121,555.0237 L816.5923,497.009 L830.4528,432.1325 L837.8522,424.996 L848.5266,492.6071 L847.2328,421.4763 L858,334 L839.4036,415.2742 C839.4036,415.2742 827.1772,428.8594 826.5338,429.0299 C825.8904,429.2004 795.663,547.3578 795.663,547.3578 Z" id="Left-wiper" stroke="#000000" fill="#FFFFFF" fill-rule="nonzero" opacity="0.851"></path>
                <g id="Sunroof-surround" opacity="0.502" transform="translate(1084.000000, 209.000000)" stroke="#000000">
                    <path d="M0,60.5831 C0,27.1235 27.9818,0 62.4999,0 L187.5,0 C222.0183,0 250,27.1235 250,60.5831 L250,332.4169 C250,365.8764 222.0183,393 187.5,393 L62.4999,393 C27.9818,393 0,365.8764 0,332.4169 L0,60.5831 Z" id="Shape"></path>
                </g>
                <g id="Bonnet-marks" opacity="0.502" transform="translate(80.000000, 380.000000)" stroke="#000000">
                    <path d="M62,0 L0,6" id="Shape" opacity="0.851"></path>
                    <path d="M62,56 L0,50" id="Shape" opacity="0.851"></path>
                </g>
                <rect id="Rectangle-path" stroke="#000000" fill="#FFFFFF" fill-rule="nonzero" x="1270" y="8" width="86" height="11"></rect>
                <rect id="Rectangle-path" stroke="#000000" fill="#FFFFFF" fill-rule="nonzero" x="1270" y="791" width="86" height="11"></rect>
                <path d="M1997,401 C1997,389.4019 2001.7009,380 2007.5,380 C2013.2991,380 2018,389.4019 2018,401 C2018,412.5981 2013.2991,422 2007.5,422 C2001.7009,422 1997,412.5981 1997,401 Z" id="Ellipse20" stroke="#000000" fill="#FFFFFF" fill-rule="nonzero"></path>
                <path d="M84,718 C89.4741,733.0345 82,462 72,446 C62,430 25.7576,430.8485 25.7576,430.8485 L26.7879,374.7879 C26.7879,374.7879 66,370 72,362 C78,354 89,112 88,114 C10.7679,268.4643 1.5152,491.4546 84,718 Z" id="Shape" stroke="#010101" fill="#000000" fill-rule="nonzero"></path>
            </g>
            <g id="interior" transform="translate(788.000000, 74.000000)" stroke="#000000" fill-rule="nonzero" opacity="0.702">
                <g id="Floor-pan" stroke-width="4" fill="#EBEBEB">
                    <path d="M0,48.5 C0,9.1638 9.1638,0 48.5,0 L524,0 L625.5,80 C664.8363,80 674,89.1638 674,128.5 L674,600.5 C674,639.8362 664.8363,649 625.5,649 L524,719 L48.5,719 C9.1638,719 0,709.8362 0,670.5 L0,48.5 Z" id="Shape"></path>
                </g>
                <polygon id="Console" stroke-width="4" fill="#EBEBEB" points="102 309 238 327 240 405 100 427"></polygon>
                <g id="Gearstick2" transform="translate(134.000000, 343.000000)" stroke-width="4" fill="#EBEBEB">
                    <path d="M0,28 C0,12.5358 12.5358,0 28,0 C43.4642,0 56,12.5358 56,28 C56,43.4642 43.4642,56 28,56 C12.5358,56 0,43.4642 0,28 Z" id="Ellipse18"></path>
                    <path d="M16,28 C16,21.3725 21.3725,16 28,16 C34.6275,16 40,21.3725 40,28 C40,34.6275 34.6275,40 28,40 C21.3725,40 16,34.6275 16,28 Z" id="Ellipse19"></path>
                </g>
                <rect id="Armrest" stroke-width="4" fill="#EBEBEB" x="229" y="344" width="154" height="40"></rect>
                <g id="Right-seat-base" transform="translate(185.000000, 73.000000)" stroke-width="5" fill="#EBEBEB">
                    <path d="M0,42.4787 C0,17.1333 16.4871,0 40.8766,0 L260.1234,0 C284.5129,0 301,17.1333 301,42.4787 L301,199.5213 C301,224.8667 284.5129,242 260.1234,242 L40.8766,242 C16.4871,242 0,224.8667 0,199.5213 L0,42.4787 Z" id="Shape"></path>
                </g>
                <g id="Right-seat-back" transform="translate(419.000000, 89.000000)" stroke-width="4" fill="#EBEBEB">
                    <path d="M0,16.75 C0,7.4991 7.4991,0 16.75,0 L50.25,0 C59.5009,0 67,7.4991 67,16.75 L67,195.25 C67,204.5009 59.5009,212 50.25,212 L16.75,212 C7.4991,212 0,204.5009 0,195.25 L0,16.75 Z" id="Shape"></path>
                </g>
                <g id="Right-headrest" transform="translate(441.000000, 142.000000)" stroke-width="4" fill="#EBEBEB">
                    <path d="M0,14.75 C0,6.6037 6.6036,0 14.75,0 L44.25,0 C52.3964,0 59,6.6037 59,14.75 L59,86.25 C59,94.3963 52.3964,101 44.25,101 L14.75,101 C6.6036,101 0,94.3963 0,86.25 L0,14.75 Z" id="Shape"></path>
                </g>
                <g id="Left-seat-base" transform="translate(185.000000, 417.000000)" stroke-width="5" fill="#EBEBEB">
                    <path d="M0,42.8032 C0,17.5626 16.4871,0.5 40.8766,0.5 L260.1234,0.5 C284.5129,0.5 301,17.5626 301,42.8032 L301,199.1968 C301,224.4374 284.5129,241.5 260.1234,241.5 L40.8766,241.5 C16.4871,241.5 0,224.4374 0,199.1968 L0,42.8032 Z" id="Shape"></path>
                </g>
                <g id="Left-seat-back" transform="translate(419.000000, 432.000000)" stroke-width="4" fill="#EBEBEB">
                    <path d="M0,16.75 C0,7.4991 7.4991,0 16.75,0 L50.25,0 C59.5009,0 67,7.4991 67,16.75 L67,195.25 C67,204.5009 59.5009,212 50.25,212 L16.75,212 C7.4991,212 0,204.5009 0,195.25 L0,16.75 Z" id="Shape"></path>
                </g>
                <g id="Left-headrest" transform="translate(441.000000, 485.000000)" stroke-width="4" fill="#EBEBEB">
                    <path d="M0,14.75 C0,6.6037 6.6036,0 14.75,0 L44.25,0 C52.3964,0 59,6.6037 59,14.75 L59,86.25 C59,94.3963 52.3964,101 44.25,101 L14.75,101 C6.6036,101 0,94.3963 0,86.25 L0,14.75 Z" id="Shape"></path>
                </g>
                <g id="Rear-seat" transform="translate(530.000000, 75.000000)" stroke-width="4" fill="#EBEBEB">
                    <path d="M0,16.5 C0,5.7138 5.7139,0 16.5,0 L54,0 L73.5,50 C84.2861,50 130,55.7138 130,66.5 L130,514.5 C130,525.2861 84.2861,531 73.5,531 L52,571 L16.5,571 C5.7139,571 0,565.2861 0,554.5 L0,16.5 Z" id="Shape"></path>
                </g>
                <g id="Rear-seat-back" transform="translate(642.000000, 95.000000)" stroke-width="4" fill="#EBEBEB">
                    <path d="M0,8 C0,3.5817 3.5817,0 8,0 L24,0 C28.4183,0 32,3.5817 32,8 L32,526 C32,530.4183 28.4183,534 24,534 L8,534 C3.5817,534 0,530.4183 0,526 L0,8 Z" id="Shape"></path>
                </g>
                <g id="Boot-cover" transform="translate(674.000000, 81.000000)" stroke-width="4" fill="#EBEBEB">
                    <path d="M0,2.25 C0,0 0,0 2.25,0 L611.75,0 C614,0 614,0 614,2.25 L614,566.75 C614,569 614,569 611.75,569 L2.25,569 C0,569 0,569 0,566.75 L0,2.25 Z" id="Shape"></path>
                </g>
                <g id="Right-wheel-arch" transform="translate(519.000000, 0.000000)" stroke-width="4" fill="#EBEBEB">
                    <path d="M1.25,0 L432.75,0 C443.934,0 453,9.0661 453,20.25 L453,60.75 C453,71.9339 443.934,81 432.75,81 L91.25,81 C80.066,81 -9.934,0 1.25,0 Z" id="Shape"></path>
                </g>
                <path d="M520.25,719 L951.75,719 C962.934,719 972,709.9339 972,698.75 L972,658.25 C972,647.0661 962.934,638 951.75,638 L610.25,638 C599.066,638 509.066,719 520.25,719 Z" id="Left-wheel-arch" stroke-width="4" fill="#EBEBEB"></path>
                <g id="Wheel" transform="translate(171.000000, 87.000000)" stroke-width="2" fill="#000000">
                    <path d="M25.5,0.2817 C39.5834,-3.6699 51,34.4137 51,85.3451 C51,136.2765 39.5834,180.7667 25.5,184.7183 C11.4166,188.6699 0,150.5863 0,99.6549 C0,48.7235 11.4166,4.2333 25.5,0.2817 Z M25.5,22.0787 C36.2546,19.0612 44.9728,48.1432 44.9728,87.0363 C44.9728,125.9294 36.2546,159.9037 25.5,162.9213 C14.7454,165.9388 6.0273,136.8568 6.0273,97.9637 C6.0273,59.0706 14.7454,25.0963 25.5,22.0787 Z" id="Shape"></path>
                </g>
                <path d="M120.095,200.05 L150,215 L185.605,205.11 C188.4792,209.4292 192.0838,212 196,212 C205.3889,212 213,197.2256 213,179 C213,160.7744 205.3889,146 196,146 C192.6278,146 189.4832,147.9078 186.84,151.195 L124.97,161.505 L144,11 C144,11 144,-15 128,13 C112,41 62,269 64,345 C66,421 98,679 122,709 C146,739 138,691 138,691 L100,359 L120.095,200.05 Z" id="Shape" stroke-width="4" fill="#000000"></path>
            </g>
            <g id="suspension" transform="translate(250.000000, 33.000000)">
                <path d="M167,309 C167,297.9541 175.9542,289 187,289 C198.0458,289 207,297.9541 207,309 C207,320.0459 198.0458,329 187,329 C175.9542,329 167,320.0459 167,309 Z M167,488 C167,475.2972 177.2973,465 190,465 C202.7027,465 213,475.2972 213,488 C213,500.7028 202.7027,511 190,511 C177.2973,511 167,500.7028 167,488 Z M138,163 L126,233 L124,565 L135,631 L238,633 L250,569 L248,228 L238,167 L138,163 Z" id="Crossmember" stroke="#000000" stroke-width="4" fill="#FFFFFF" fill-rule="nonzero"></path>
                <g id="Right-front-typre" stroke="#000000" stroke-width="4" fill="#FFFFFF" fill-rule="nonzero">
                    <path d="M0,21.75 C0,9.7377 9.7377,0 21.75,0 L372.25,0 C384.2623,0 394,9.7377 394,21.75 L394,65.25 C394,77.2623 384.2623,87 372.25,87 L21.75,87 C9.7377,87 0,77.2623 0,65.25 L0,21.75 Z" id="Shape"></path>
                </g>
                <path d="M179,95.5 C179,90.8055 183.2532,87 188.5,87 C193.7468,87 198,90.8055 198,95.5 C198,100.1945 193.7468,104 188.5,104 C183.2532,104 179,100.1945 179,95.5 Z" id="Right-kingpin" stroke="#000000" stroke-width="4" fill="#FFFFFF" fill-rule="nonzero"></path>
                <g id="Left-front-tyre" transform="translate(0.000000, 716.000000)" stroke="#000000" stroke-width="4" fill="#FFFFFF" fill-rule="nonzero">
                    <path d="M0,65.25 C0,77.2623 9.7377,87 21.75,87 L372.25,87 C384.2623,87 394,77.2623 394,65.25 L394,21.75 C394,9.7377 384.2623,0 372.25,0 L21.75,0 C9.7377,0 0,9.7377 0,21.75 L0,65.25 Z" id="Shape"></path>
                </g>
                <path d="M179,707.5 C179,712.1945 183.2532,716 188.5,716 C193.7468,716 198,712.1945 198,707.5 C198,702.8055 193.7468,699 188.5,699 C183.2532,699 179,702.8055 179,707.5 Z" id="Left-kinpin" stroke="#000000" stroke-width="4" fill="#FFFFFF" fill-rule="nonzero"></path>
                <polygon id="Right-spring" stroke="#000000" stroke-width="4" fill="#FFFFFF" fill-rule="nonzero" points="1292 118 1292 123 1292 133 1324 133 1327 138 1341 138 1345 133 1371 133 1373 138 1391 138 1394 132 1436 132 1439 137 1454 137 1457 131 1637 131 1641 135 1656 135 1658 129 1698 129 1703 134 1719 134 1723 127 1748 127 1754 133 1766 133 1769 127 1801 127 1801 125 1801 113 1801 111 1769 111 1766 105 1754 105 1748 111 1723 111 1719 104 1703 104 1698 109 1658 109 1656 103 1641 103 1637 110 1457 110 1454 104 1439 104 1436 109 1394 109 1391 103 1373 103 1371 108 1345 108 1341 103 1327 103 1324 108 1292 108"></polygon>
                <polygon id="Left-spring" stroke="#000000" stroke-width="4" fill="#FFFFFF" fill-rule="nonzero" points="1292 682 1292 687 1292 697 1324 697 1327 702 1341 702 1345 697 1371 697 1373 702 1391 702 1394 696 1436 696 1439 701 1454 701 1457 695 1637 695 1641 699 1656 699 1658 693 1698 693 1703 698 1719 698 1723 691 1748 691 1754 697 1766 697 1769 691 1801 691 1801 689 1801 677 1801 675 1769 675 1766 669 1754 669 1748 675 1723 675 1719 668 1703 668 1698 673 1658 673 1656 667 1641 667 1637 674 1457 674 1454 668 1439 668 1436 673 1394 673 1391 667 1373 667 1371 672 1345 672 1341 667 1327 667 1324 672 1292 672"></polygon>
                <g id="Rear-right-LAD" transform="translate(1440.000000, 105.000000)" stroke="#000000" fill="#FFFFFF" fill-rule="nonzero">
                    <path d="M0,10.0464 C0,9.7834 9.2239,1 9.5,1 L28.5,1 C39.2698,1 38,-0.2091 38,10.0464 L38,56.9536 C38,67.2091 39.2698,66 28.5,66 L9.5,66 C9.2239,66 0,57.2166 0,56.9536 L0,10.0464 Z" id="Shape" stroke-width="3"></path>
                    <path d="M39,47.5 C39,44.4624 41.4624,42 44.5,42 L57.5,42 C60.5376,42 63,44.4624 63,47.5 L63,58.5 C63,61.5376 60.5376,64 57.5,64 L44.5,64 C41.4624,64 39,61.5376 39,58.5 L39,47.5 Z" id="Shape" stroke-width="4"></path>
                </g>
                <g id="Rear-left-LAD" transform="translate(1439.000000, 630.000000)" stroke="#000000" fill="#FFFFFF" fill-rule="nonzero">
                    <path d="M1,10.0464 C1,8.6667 8.6666,0.6667 10.5,1 L29.5,1 C34.7468,1 39,5.0502 39,10.0464 L39,56.9536 C39,61.9498 34.7468,66 29.5,66 L10.5,66 C9.6666,65.6667 0.6666,58.3333 1,56.9536 L1,10.0464 Z" id="Shape" stroke-width="3"></path>
                    <path d="M39,10.5 C39,7.4624 41.4624,5 44.5,5 L57.5,5 C60.5376,5 63,7.4624 63,10.5 L63,21.5 C63,24.5376 60.5376,27 57.5,27 L44.5,27 C41.4624,27 39,24.5376 39,21.5 L39,10.5 Z" id="Shape" stroke-width="4"></path>
                </g>
                <g id="Right-LAD" transform="translate(142.000000, 76.000000)" stroke="#000000" stroke-width="4" fill="#FFFFFF" fill-rule="nonzero">
                    <path d="M84,115 L73,113 L72,92 L22,91 L21,115 L11,116 L10,108 L39,56 C39,56 48,46 57,59 C66,72 69,82 69,82 L84,115 Z M25,50 L1,110 L0,127 L0,163 L91,163 L93,114 L65,51 L75,2 L63,3 L61,29 L45,39 L30,30 L28,0 L16,1 L25,50 Z" id="Shape"></path>
                    <path d="M29,107.25 C29,102.6936 32.6936,99 37.25,99 L53.75,99 C58.3064,99 62,102.6936 62,107.25 L62,150.75 C62,155.3064 58.3064,159 53.75,159 L37.25,159 C32.6936,159 29,155.3064 29,150.75 L29,107.25 Z" id="Shape"></path>
                    <path d="M37,137.5 C37,132.8055 40.8055,129 45.5,129 C50.1945,129 54,132.8055 54,137.5 C54,142.1945 50.1945,146 45.5,146 C40.8055,146 37,142.1945 37,137.5 Z" id="Ellipse"></path>
                </g>
                <g id="Left-LAD" transform="translate(142.000000, 564.000000)" stroke="#000000" stroke-width="4" fill="#FFFFFF" fill-rule="nonzero">
                    <path d="M84,48 L69,81 C69,81 66,91 57,104 C48,117 39,107 39,107 L10,55 L11,47 L21,48 L22,72 L72,71 L73,50 L84,48 Z M25,113 L16,162 L28,163 L30,133 L45,124 L61,134 L63,160 L75,161 L65,112 L93,49 L91,0 L0,0 L0,36 L1,53 L25,113 Z" id="Shape"></path>
                    <g id="Group" transform="translate(29.000000, 1.000000)">
                        <path d="M0,51.75 C0,56.3064 3.6936,60 8.25,60 L24.75,60 C29.3064,60 33,56.3064 33,51.75 L33,8.25 C33,3.6936 29.3064,0 24.75,0 L8.25,0 C3.6936,0 0,3.6936 0,8.25 L0,51.75 Z" id="Shape"></path>
                        <path d="M8,21.5 C8,26.1945 11.8055,30 16.5,30 C21.1945,30 25,26.1945 25,21.5 C25,16.8055 21.1945,13 16.5,13 C11.8055,13 8,16.8055 8,21.5 Z" id="Ellipse2"></path>
                    </g>
                </g>
                <g id="Tread" transform="translate(2.000000, 24.000000)" stroke="#111111" stroke-width="2" opacity="0.502">
                    <path d="M0.5,0.5 L63.5,0.5" id="Line"></path>
                    <path d="M0.5,20.5 L63.5,20.5" id="Line2"></path>
                    <path d="M0.5,40.5 L63.5,40.5" id="Line3"></path>
                    <path d="M329.5,0.5 L392.5,0.5" id="Line4"></path>
                    <path d="M329.5,20.5 L392.5,20.5" id="Line5"></path>
                    <path d="M329.5,40.5 L392.5,40.5" id="Line6"></path>
                    <path d="M0.5,714.5 L63.5,714.5" id="Line7"></path>
                    <path d="M0.5,734.5 L63.5,734.5" id="Line8"></path>
                    <path d="M0.5,754.5 L63.5,754.5" id="Line9"></path>
                    <path d="M329.5,714.5 L392.5,714.5" id="Line10"></path>
                    <path d="M329.5,734.5 L392.5,734.5" id="Line11"></path>
                    <path d="M329.5,754.5 L392.5,754.5" id="Line12"></path>
                </g>
            </g>
            <g id="transmission" transform="translate(664.000000, 33.000000)">
                <path d="M966.229,384.0374 L972,384 L972,371 L1010,371 L1010,386 L1019,386 L1020,373 L1031,372 C1031,372 1098.5824,357.5439 1126,289 L1126,275 L1124,47 L1166,47 L1166,271 L1180,273 L1170,287 L1172,341 L1198,347 L1198,399 L1216,409 L1214,435 L1198,457 L1174,471 L1172,539 L1214,543 L1212,559 L1170,559 L1172,749 L1134,749 L1134,525 L1122,517 L1122,501 C1122,501 1104.8186,461.4093 1036,427 C1028,423 1021,425 1021,425 L1021,417 L1010,417 L1011,428 L975,428 L975,414 L967.5923,414.0299" id="Rear-axle" stroke="#000000" stroke-width="4" fill="#FFFFFF" fill-rule="nonzero"></path>
                <path d="M565,423 L508,423 L508,414 L502,413 L502,431 L492,436 L474,452 L457,457 L351,461 L351,479 L263,479 L254,469 L141,468 C141,468 118,511 76,517 C76,517 72.0036,270.8573 75,271 C117,273 95.7244,320.3322 183,359 C225.2159,377.704 225,367 225,367 L281,367 L281,377 L504,378 L504,390 L511,390 L511,381 L565,381 L565,423 Z" id="Gearbox" stroke="#000000" stroke-width="4" fill="#FFFFFF" fill-rule="nonzero"></path>
                <rect id="Rectangle-path" stroke="#010101" stroke-width="4" fill="#FFFFFF" fill-rule="nonzero" x="49" y="126" width="81" height="73"></rect>
                <polygon id="Propshaft" stroke="#000000" stroke-width="4" fill="#FFFFFF" fill-rule="nonzero" points="566 387.7778 638 387 646 395 660 395 663 386 966.229 384.0374 966.5923 414.0299 664 415 659 407 646 407 640 413 566 413"></polygon>
                <path d="M953,21.75 C953,9.7377 962.7377,0 974.75,0 L1325.25,0 C1337.2623,0 1347,9.7377 1347,21.75 L1347,65.25 C1347,77.2623 1337.2623,87 1325.25,87 L974.75,87 C962.7377,87 953,77.2623 953,65.25 L953,21.75 Z" id="Rear-right-tyre" stroke="#000000" stroke-width="4" fill="#FFFFFF" fill-rule="nonzero"></path>
                <path d="M956,781.25 C956,793.2623 965.7377,803 977.75,803 L1328.25,803 C1340.2623,803 1350,793.2623 1350,781.25 L1350,737.75 C1350,725.7377 1340.2623,716 1328.25,716 L977.75,716 C965.7377,716 956,725.7377 956,737.75 L956,781.25 Z" id="Rear-left-tyre" stroke="#000000" stroke-width="4" fill="#FFFFFF" fill-rule="nonzero"></path>
                <g id="Farings" transform="translate(192.000000, 379.000000)" stroke="#111111" stroke-width="4" opacity="0.502">
                    <path d="M40.5,0.5 L40.5,73.5" id="Line13"></path>
                    <path d="M0.5,0.5 L0.5,73.5" id="Line14"></path>
                    <path d="M80.5,0.5 L80.5,73.5" id="Line15"></path>
                </g>
                <g id="Gearstick" transform="translate(152.000000, 402.000000)" stroke="#111111" stroke-width="4" fill="#FFFFFF" fill-rule="nonzero">
                    <path d="M0,15 C0,6.7156 6.7156,0 15,0 L145,0 C153.2844,0 160,6.7156 160,15 L160,15 C160,23.2844 153.2844,30 145,30 L15,30 C6.7156,30 0,23.2844 0,15 L0,15 Z" id="Shape"></path>
                    <path d="M110,15 C110,6.7156 117.1633,0 126,0 C134.8367,0 142,6.7156 142,15 C142,23.2844 134.8367,30 126,30 C117.1633,30 110,23.2844 110,15 Z" id="Ellipse3"></path>
                </g>
                <g id="Tread2" transform="translate(954.000000, 24.000000)" stroke="#111111" stroke-width="2" opacity="0.502">
                    <path d="M0.5,0.5 L63.5,0.5" id="Line16"></path>
                    <path d="M0.5,20.5 L63.5,20.5" id="Line17"></path>
                    <path d="M0.5,40.5 L63.5,40.5" id="Line18"></path>
                    <path d="M329.5,0.5 L392.5,0.5" id="Line19"></path>
                    <path d="M329.5,20.5 L392.5,20.5" id="Line20"></path>
                    <path d="M329.5,40.5 L392.5,40.5" id="Line21"></path>
                    <path d="M0.5,714.5 L63.5,714.5" id="Line22"></path>
                    <path d="M0.5,734.5 L63.5,734.5" id="Line23"></path>
                    <path d="M0.5,754.5 L63.5,754.5" id="Line24"></path>
                    <path d="M329.5,714.5 L392.5,714.5" id="Line25"></path>
                    <path d="M329.5,734.5 L392.5,734.5" id="Line26"></path>
                    <path d="M329.5,754.5 L392.5,754.5" id="Line27"></path>
                </g>
                <g id="Clutch-pedal" transform="translate(92.000000, 171.000000)" stroke="#000000" fill-rule="nonzero" stroke-width="4" fill="#FFFFFF">
                    <rect id="Rectangle-path" x="0" y="8" width="114" height="8"></rect>
                    <rect id="Rectangle-path" x="94" y="0" width="30" height="23"></rect>
                </g>
                <rect id="Clutch-slave" stroke="#000000" stroke-width="4" fill="#FFFFFF" fill-rule="nonzero" x="233" y="372" width="63" height="20"></rect>
                <polyline id="Clutch-line" stroke="#FF6600" stroke-width="4" points="120 184 145 232 0 233 1 270 113 336 177 336 177 381 230 381"></polyline>
                <path d="M89,183 C89,174.1633 96.1633,167 105,167 C113.8367,167 121,174.1633 121,183 C121,191.8367 113.8367,199 105,199 C96.1633,199 89,191.8367 89,183 Z M51,173 L92,173 L92,191 L51,191 L51,173 Z" id="Clutch-master" stroke="#000000" stroke-width="4" fill="#FFFFFF" fill-rule="nonzero"></path>
            </g>
            <g id="engine" transform="translate(362.000000, 300.000000)" stroke="#000000" fill-rule="nonzero" stroke-width="4" fill="#FFFFFF">
                <path d="M372,0 L376,252 C376,252 332,220 332,200 C332,180 330,74 330,74 C330,74 334,14 372,0 Z" id="Shape"></path>
                <path d="M16,84.5 C16,74.3248 19.3249,71 29.5,71 L316.5,71 C326.6751,71 330,74.3248 330,84.5 L330,199.5 C330,209.6752 326.6751,213 316.5,213 L29.5,213 C19.3249,213 16,209.6752 16,199.5 L16,84.5 Z" id="Shape"></path>
                <path d="M41,121.75 C41,114.2899 46.2899,109 53.75,109 L297.25,109 C304.7101,109 310,114.2899 310,121.75 L310,163.25 C310,170.7101 304.7101,176 297.25,176 L53.75,176 C46.2899,176 41,170.7101 41,163.25 L41,121.75 Z" id="Shape"></path>
                <polygon id="Shape" points="95 118 114.5458 127.4127 119.3732 148.563 105.8471 165.5242 84.1529 165.5242 70.6268 148.563 75.4542 127.4127"></polygon>
                <path d="M89,142.5 C89,138.9102 91.6862,136 95,136 C98.3138,136 101,138.9102 101,142.5 C101,146.0898 98.3138,149 95,149 C91.6862,149 89,146.0898 89,142.5 Z" id="Ellipse4"></path>
                <path d="M186,88 C186,78.6111 196.745,71 210,71 C223.255,71 234,78.6111 234,88 C234,97.3889 223.255,105 210,105 C196.745,105 186,97.3889 186,88 Z" id="Ellipse5"></path>
                <rect id="Rectangle-path" x="0" y="105" width="16" height="81"></rect>
            </g>
            <g id="intake-and-exhaust" transform="translate(450.000000, 510.000000)" stroke="#000000" stroke-width="4" fill="#FFFFFF" fill-rule="nonzero">
                <path d="M131.4236,50.0026 C118.1448,50 109,50 109,50 L96,53 L84,51 L84,43 L63,36 C63,36 21,34 9,26 C-3,18 2,11 2,11 L2,0 L22,0 L22,11 C22,14 50,16 50,16 C50,16 85,21 92,23 L140,9 L140,1 L165,1 C165,1 168,10 167,16 C166,22 117,37 117,37 L141.5464,38.1959" id="Manifold"></path>
                <path d="M141.5464,38.1959 L152,39 L253,39 C271,39 273,50 273,50 C273,50 444.8146,49.6217 682,49.33 L682,21 L916,21 L916,49.025 L930,49 C974,51 986,100 1028,100 L1374,100 L1374,82 L1608,82 L1608,98 L1712,98 L1712,118 C1712,118 1613.5,117 1608,117.49 L1608,133 L1374,133 L1374,115.99 L1030,116 C972.2577,116 972,57 916,63.0699 L916,92 L682,92 L682,63.2949 L276,64 C276,64 265,73 254,72 C243,71 137.1448,71.6689 134,72 C115,74 108.2413,65.0341 107,58 C101,24 59,1 59,1 L86,1 C86,1 96,14 106,23 C116,32 120,58 127,60 C134,62 230,60 232.0486,60.3179 C245.6438,62.4274 255.283,58.5468 255,56 C254.6161,52.5451 244.7614,51.0933 230.817,50.126 C229.5016,50.0348 166.2468,50.0096 131.4236,50.0026" id="Exhaust"></path>
            </g>
            <g id="cooling" transform="translate(179.000000, 162.000000)">
                <path d="M11,191 C19,-1 369,69 345,209" id="Engine-to-cooler" stroke="#003399" stroke-width="8"></path>
                <path d="M7,361 C7,361 7,209 11,187 C42.9119,11.4847 421,72 397,212" id="Cooler-to-engine" stroke="#003399" stroke-width="8"></path>
                <g id="Expansion" transform="translate(100.000000, 0.000000)" stroke="#000000" stroke-width="4" fill="#FFFFFF" fill-rule="nonzero">
                    <path d="M1,16 C1,16 -1,82 39,74 C79,66 69,10 43,2 C17,-6 1,16 1,16 Z" id="Shape"></path>
                    <path d="M12,19.5 C12,13.7009 17.8202,9 25,9 C32.1798,9 38,13.7009 38,19.5 C38,25.2991 32.1798,30 25,30 C17.8202,30 12,25.2991 12,19.5 Z" id="Ellipse6"></path>
                </g>
                <path d="M129,143 C187,153 93,235 205,231" id="Stat-to-rad" stroke="#003399" stroke-width="8"></path>
                <path d="M111,433 C199,453 115,317 229,325" id="Rad-to-engine" stroke="#003399" stroke-width="8"></path>
                <path d="M218.735,243 C221.5313,247.833 226.2066,251 231.5,251 C240.0605,251 247,242.7174 247,232.5 C247,222.2826 240.0605,214 231.5,214 C225.1764,214 219.7357,218.5196 217.325,225 L200,225 L200,243 L218.735,243 Z" id="Stat" stroke="#000000" stroke-width="4" fill="#FFFFFF" fill-rule="nonzero"></path>
                <path d="M67,122 L67,446 C67,452.0752 71.9248,457 78,457 L100,457 C106.0752,457 111,452.0752 111,446 L111,149 L129,149 L129,131 L111,131 L111,162 C111,155.9248 106.0752,111 100,111 L78,111 C71.9248,111 67,115.9248 67,122 Z" id="Rad" stroke="#000000" stroke-width="4" fill="#FFFFFF" fill-rule="nonzero"></path>
                <g id="Fan" transform="translate(48.000000, 124.000000)" stroke="#000000" fill-rule="nonzero" stroke-width="3" fill="#FFFF00">
                    <rect id="Rectangle-path" x="5.845" y="74.3605" width="11.25" height="15.75"></rect>
                    <path d="M8.095,72.8605 C8.095,72.8605 -10,6 10.345,0.1105 C19.4577,-2.5274 8.095,72.8605 8.095,72.8605 Z" id="Shape"></path>
                    <path d="M8.095,90.0237 C8.095,90.0237 -7,155 10.345,162.7737 C19.0021,166.6537 8.095,90.0237 8.095,90.0237 Z" id="Shape"></path>
                </g>
                <rect id="Cooler" stroke="#000000" stroke-width="4" fill="#FFFFFF" fill-rule="nonzero" x="0" y="176" width="22" height="194"></rect>
            </g>
            <text id="©-Adam-Liptrot" fill="#FFFFFF" font-family="Arial-BoldMT, Arial" font-size="18" font-weight="bold">
                <tspan x="771.6133" y="788.8058">© Adam Liptrot</tspan>
            </text>
            <g id="brakes" transform="translate(343.000000, 54.000000)">
                <rect id="Right-disc" stroke="#111111" stroke-width="4" fill="#FFFFFF" fill-rule="nonzero" x="0" y="29" width="208" height="10"></rect>
                <rect id="Left-disc" stroke="#111111" stroke-width="4" fill="#FFFFFF" fill-rule="nonzero" x="0" y="721" width="208" height="10"></rect>
                <polyline id="Servo-to-left" stroke="#66CCCC" stroke-width="4" points="274 161 274 247 297 247 298 564 198 564 199 642"></polyline>
                <path d="M1498,48.75 C1498,47.2312 1499.2312,46 1500.75,46 L1508.25,46 C1509.7688,46 1511,47.2312 1511,48.75 L1511,54.25 C1511,55.7688 1509.7688,57 1508.25,57 L1500.75,57 C1499.2312,57 1498,55.7688 1498,54.25 L1498,48.75 Z M1385,36 L1385,33.75 C1385,15.4239 1400.4238,0 1418.75,0 L1527.25,0 C1545.5762,0 1561,15.4239 1561,33.75 L1561,36 L1385,36 Z M1379,38.5 C1379,37.1193 1380.1193,36 1381.5,36 L1563.5,36 C1564.8807,36 1566,37.1193 1566,38.5 L1566,43.5 C1566,44.8807 1564.8807,46 1563.5,46 L1381.5,46 C1380.1193,46 1379,44.8807 1379,43.5 L1379,38.5 Z" id="Right-drum" stroke="#000000" stroke-width="4" fill="#FFFFFF" fill-rule="nonzero"></path>
                <path d="M1498,712.25 C1498,713.7688 1499.2312,715 1500.75,715 L1508.25,715 C1509.7688,715 1511,713.7688 1511,712.25 L1511,706.75 C1511,705.2312 1509.7688,704 1508.25,704 L1500.75,704 C1499.2312,704 1498,705.2312 1498,706.75 L1498,712.25 Z M1385,725 L1385,727.25 C1385,745.5761 1400.4238,761 1418.75,761 L1527.25,761 C1545.5762,761 1561,745.5761 1561,727.25 L1561,725 L1385,725 Z M1379,722.5 C1379,723.8807 1380.1193,725 1381.5,725 L1563.5,725 C1564.8807,725 1566,723.8807 1566,722.5 L1566,717.5 C1566,716.1193 1564.8807,715 1563.5,715 L1381.5,715 C1380.1193,715 1379,716.1193 1379,717.5 L1379,722.5 Z" id="Left-drum" stroke="#000000" stroke-width="4" fill="#FFFFFF" fill-rule="nonzero"></path>
                <polyline id="Rear-to-right" stroke="#66CCCC" stroke-width="4" points="1505 57 1505 68 1436 68 1435.2324 199.0232"></polyline>
                <polyline id="Servo-to-right" stroke="#66CCCC" stroke-width="4" points="244 162 244 196 180 197 180 138 180 138 179 120"></polyline>
                <path d="M191,89 C201,92 242,137 181,116" id="Right-hose" stroke="#66CCCC" stroke-width="8"></path>
                <path d="M181,673 C223,671 257,629 201,644" id="Left-hose" stroke="#66CCCC" stroke-width="8"></path>
                <path d="M143,734.5 L143,683.5 C143,679.2826 145.0087,677 148.72,677 L161.725,677 L179,667 L192,676 L190.75,677 L194.5,677 C196.433,677 198,678.567 198,680.5 L198,711.5 C198,713.433 196.433,715 194.5,715 L187.5,715 C187.3302,715 187.1633,714.9884 187,714.965 L187,734.5 C187,738.7174 184.9913,741 181.28,741 L148.72,741 C145.0087,741 143,738.7174 143,734.5 Z" id="Left-caliper" stroke="#111111" stroke-width="4" fill="#FFFFFF" fill-rule="nonzero"></path>
                <path d="M143,28.5 L143,79.5 C143,83.7174 145.0087,86 148.72,86 L161.725,86 L179,96 L192,87 L190.75,86 L194.5,86 C196.433,86 198,84.433 198,82.5 L198,51.5 C198,49.567 196.433,48 194.5,48 L187.5,48 C187.3302,48 187.1633,48.0116 187,48.035 L187,28.5 C187,24.2826 184.9913,22 181.28,22 L148.72,22 C145.0087,22 143,24.2826 143,28.5 Z" id="Right-caliper" stroke="#111111" stroke-width="4" fill="#FFFFFF" fill-rule="nonzero"></path>
                <polyline id="Servo-to-rear" stroke="#66CCCC" stroke-width="4" points="1502 703 1502 689 1435 689 1435 581 1445 562 1433 541 1435 195 1344 210 983 205 967 302 910 302 869 281 696 281 671 297 417 296 417 203 193 203 194 140"></polyline>
                <g id="Brake-pedal" transform="translate(413.000000, 116.000000)" stroke="#000000" fill-rule="nonzero" stroke-width="4" fill="#FFFFFF">
                    <rect id="Rectangle-path" x="0" y="8" width="114" height="8"></rect>
                    <rect id="Rectangle-path" x="94" y="0" width="30" height="23"></rect>
                </g>
                <path d="M370,120 L413,120 L413,140 L370,140 L370,120 Z M302,135.5 C302,134.1193 303.1193,133 304.5,133 L309.5,133 C310.8807,133 312,134.1193 312,135.5 L312,152.5 C312,153.8807 310.8807,155 309.5,155 L304.5,155 C303.1193,155 302,153.8807 302,152.5 L302,135.5 Z M196,137 C196,133.134 199.1339,130 203,130 L295,130 C298.8661,130 302,133.134 302,137 L302,151 C302,154.866 298.8661,158 295,158 L203,158 C199.1339,158 196,154.866 196,151 L196,137 Z M349,189 L322.25,189 C315.7523,189 312,185.2477 312,178.75 L312,106.25 C312,99.7523 315.7523,96 322.25,96 L349,96 L349,189 Z M351,92.4196 C351,89.9787 353.1266,88 355.75,88 L365.25,88 C367.8734,88 370,89.9787 370,92.4196 L370,190.5804 C370,193.0213 367.8734,195 365.25,195 L355.75,195 C353.1266,195 351,193.0213 351,190.5804 L351,92.4196 Z" id="Servo" stroke="#010101" stroke-width="4" fill="#FFFFFF" fill-rule="nonzero"></path>
            </g>
            <g id="fuel-and-air" transform="translate(384.000000, 136.000000)">
                <polyline id="Fuel-line" stroke="#990000" stroke-width="3" points="1487 90 1367 90 1367 192 414 194 269 107 270 503 64 503 64 396 171 396"></polyline>
                <g id="Tank" transform="translate(1438.000000, 44.000000)" stroke="#000000" stroke-width="4" fill="#FFFFFF" fill-rule="nonzero">
                    <path d="M0,26 C0,7.2478 7.2478,0 26,0 L246,0 C264.7522,0 272,7.2478 272,26 L272,392 C272,410.7522 264.7522,418 246,418 L26,418 C7.2478,418 0,410.7522 0,392 L0,26 Z" id="Shape"></path>
                    <path d="M64,58 L228.5,58 C232.0898,58 235,60.9102 235,64.5 L235,77.5 C235,81.0898 232.0898,84 228.5,84 L64,84" id="Shape"></path>
                    <path d="M64,128 L228.5,128 C232.0898,128 235,130.9102 235,134.5 L235,147.5 C235,151.0898 232.0898,154 228.5,154 L64,154" id="Shape" opacity="0.502"></path>
                    <path d="M64,198 L228.5,198 C232.0898,198 235,200.9102 235,204.5 L235,217.5 C235,221.0898 232.0898,224 228.5,224 L64,224" id="Shape" opacity="0.502"></path>
                    <path d="M64,268 L228.5,268 C232.0898,268 235,270.9102 235,274.5 L235,287.5 C235,291.0898 232.0898,294 228.5,294 L64,294" id="Shape" opacity="0.502"></path>
                    <path d="M64,338 L228.5,338 C232.0898,338 235,340.9102 235,344.5 L235,357.5 C235,361.0898 232.0898,364 228.5,364 L64,364" id="Shape" opacity="0.502"></path>
                </g>
                <g id="Pump" transform="translate(1416.000000, 74.000000)" stroke="#000000" stroke-width="4" fill="#FFFFFF" fill-rule="nonzero">
                    <path d="M0,7 C0,3.1339 3.1339,0 7,0 L55,0 C58.8661,0 62,3.1339 62,7 L62,21 C62,24.8661 58.8661,28 55,28 L7,28 C3.1339,28 0,24.8661 0,21 L0,7 Z" id="Shape"></path>
                </g>
                <g id="Filter" transform="translate(258.000000, 355.000000)" stroke="#000000" stroke-width="4" fill="#FFFFFF" fill-rule="nonzero">
                    <path d="M0,5.25 C0,2.3505 2.3505,0 5.25,0 L15.75,0 C18.6495,0 21,2.3505 21,5.25 L21,38.75 C21,41.6495 18.6495,44 15.75,44 L10.5,44 L5.25,44 C2.3505,44 0,41.6495 0,38.75 L0,5.25 Z" id="Shape"></path>
                </g>
                <g id="Rear-carb" transform="translate(172.000000, 365.000000)" stroke="#000000" stroke-width="4" fill="#FFFFFF" fill-rule="nonzero">
                    <path d="M25,6 C1.0012,6.5581 0,24 0,24 L0.5,52.5 C0.5,52.5 21.9801,80.0199 47,55 L47,29 C47,29 46.5,5.5 25,6 Z" id="Shape"></path>
                    <path d="M19.5,38.5 C19.5,38.5 44,31 44,25" id="Shape"></path>
                    <path d="M13,9 C13,4.0294 17.7009,0 23.5,0 C29.2991,0 34,4.0294 34,9 C34,13.9706 29.2991,18 23.5,18 C17.7009,18 13,13.9706 13,9 Z" id="Ellipse7"></path>
                </g>
                <g id="Front-carb" transform="translate(101.000000, 364.000000)" stroke="#000000" stroke-width="4" fill="#FFFFFF" fill-rule="nonzero">
                    <path d="M25,6 C1.0013,6.5581 0,24 0,24 L0.5,52.5 C0.5,52.5 21.9801,80.0199 47,55 L47,29 C47,29 46.5,5.5 25,6 Z" id="Shape"></path>
                    <path d="M19.5,38.5 C19.5,38.5 44,31 44,25" id="Shape"></path>
                    <path d="M13,9 C13,4.0294 17.7009,0 23.5,0 C29.2991,0 34,4.0294 34,9 C34,13.9706 29.2991,18 23.5,18 C17.7009,18 13,13.9706 13,9 Z" id="Ellipse8"></path>
                </g>
                <path d="M148,432 C143.8411,407.0461 87.02,398.98 62,424 L8,402 L0,422 L74,458 L84,478 L128,478 L140,462 L159,462 L159,440 C159,440 150,444 148,432 Z" id="Front-can" stroke="#000000" stroke-width="4" fill="#FFFFFF" fill-rule="nonzero"></path>
                <path d="M171,432 C175.1589,407.0461 231.98,398.98 257,424 L311,402 L319,422 L245,458 L235,478 L191,478 L179,462 L159,462 L160,440 C160,440 169,444 171,432 Z" id="Rear-can" stroke="#000000" stroke-width="4" fill="#FFFFFF" fill-rule="nonzero"></path>
                <g id="Accelerator-pedal" transform="translate(373.000000, 0.000000)" stroke="#000000" fill-rule="nonzero" stroke-width="4" fill="#FFFFFF">
                    <rect id="Rectangle-path" x="0" y="8" width="114" height="8"></rect>
                    <rect id="Rectangle-path" x="94" y="0" width="30" height="23"></rect>
                </g>
                <path d="M371,11 C331.2121,-1.3636 148.4243,260.4545 158,400" id="Accelerator-cable" stroke="#CC6699" stroke-width="4"></path>
            </g>
            <g id="electrics" transform="translate(220.000000, 33.000000)">
                <path d="M16,35.5 C16,34.6716 16.6716,34 17.5,34 L20.5,34 C21.3284,34 22,34.6716 22,35.5 L22,136.5 C22,137.3284 21.3284,138 20.5,138 L17.5,138 C16.6716,138 16,137.3284 16,136.5 L16,35.5 Z M22,34.0426 C22.6629,34.0143 23.3297,34 24,34 C48.3008,34 68,62.8037 68,86 C68,109.1963 48.3008,138 24,138 C23.3297,138 22.6629,137.9857 22,137.9574 L22,34.0426 Z" id="Right-headlight" stroke="#000000" stroke-width="4" fill="#FFFFFF" fill-rule="nonzero"></path>
                <path d="M14,34 C5,34 0,62.8037 0,86 C0,109.1963 2.5,138.5 14,138" id="Right-headlight-cover" stroke="#000000" stroke-width="4" fill="#FFFFFF" fill-rule="nonzero" opacity="0.502"></path>
                <path d="M14,662 C5,662 0,690.8037 0,714 C0,737.1963 2.5,766.5 14,766" id="Left-headlight-cover" stroke="#000000" stroke-width="4" fill="#FFFFFF" fill-rule="nonzero" opacity="0.502"></path>
                <path d="M16,663.5 C16,662.6716 16.6716,662 17.5,662 L20.5,662 C21.3284,662 22,662.6716 22,663.5 L22,764.5 C22,765.3284 21.3284,766 20.5,766 L17.5,766 C16.6716,766 16,765.3284 16,764.5 L16,663.5 Z M22,662.0426 C22.663,662.0143 23.3297,662 24,662 C48.3008,662 68,690.8037 68,714 C68,737.1963 48.3008,766 24,766 C23.3297,766 22.663,765.9857 22,765.9574 L22,662.0426 Z" id="Left-headlight" stroke="#000000" stroke-width="4" fill="#FFFFFF" fill-rule="nonzero"></path>
                <g id="Battery" transform="translate(1041.000000, 270.000000)" stroke="#000000" fill-rule="nonzero" stroke-width="4" fill="#FFFFFF">
                    <rect id="Rectangle-path" x="0.5" y="0.5" width="100" height="71"></rect>
                    <path d="M73,57.5 C73,53.3578 76.3578,50 80.5,50 C84.6422,50 88,53.3578 88,57.5 C88,61.6422 84.6422,65 80.5,65 C76.3578,65 73,61.6422 73,57.5 Z" id="Ellipse9"></path>
                    <path d="M13,57.5 C13,53.3578 16.3578,50 20.5,50 C24.6422,50 28,53.3578 28,57.5 C28,61.6422 24.6422,65 20.5,65 C16.3578,65 13,61.6422 13,57.5 Z" id="Ellipse10"></path>
                </g>
                <g id="Coil" transform="translate(314.000000, 265.000000)" stroke="#000000" stroke-width="4" fill="#FFFFFF" fill-rule="nonzero">
                    <path d="M0,7.5 C0,3.3578 3.3578,0 7.5,0 L22.5,0 C26.6422,0 30,3.3578 30,7.5 L30,47.5 C30,51.6422 26.6422,55 22.5,55 L7.5,55 C3.3578,55 0,51.6422 0,47.5 L0,7.5 Z" id="Shape"></path>
                    <path d="M0,5.5 C0,2.4624 6.7156,0 15,0 C23.2844,0 30,2.4624 30,5.5 C30,8.5376 23.2844,11 15,11 C6.7156,11 0,8.5376 0,5.5 Z" id="Ellipse11"></path>
                </g>
                <g id="Dizzy" transform="translate(386.000000, 326.000000)" stroke="#000000" fill="#FFFFFF" fill-rule="nonzero">
                    <g id="Group" transform="translate(0.000000, 10.000000)" stroke-width="4">
                        <path d="M0,7.5 C0,3.3578 3.3578,0 7.5,0 L22.5,0 C26.6422,0 30,3.3578 30,7.5 L30,17.5 C30,21.6422 26.6422,25 22.5,25 L7.5,25 C3.3578,25 0,21.6422 0,17.5 L0,7.5 Z" id="Shape"></path>
                        <path d="M0,5.5 C0,2.4624 6.7156,0 15,0 C23.2844,0 30,2.4624 30,5.5 C30,8.5376 23.2844,11 15,11 C6.7156,11 0,8.5376 0,5.5 Z" id="Ellipse12"></path>
                    </g>
                    <g id="Group" transform="translate(8.000000, 0.000000)" stroke-width="2">
                        <path d="M0,3.5455 C0,1.5873 1.567,0 3.5,0 L10.5,0 C12.433,0 14,1.5873 14,3.5455 L14,12.4545 C14,14.4127 12.433,16 10.5,16 L3.5,16 C1.567,16 0,14.4127 0,12.4545 L0,3.5455 Z" id="Shape"></path>
                        <path d="M0,2.6 C0,1.1641 3.134,0 7,0 C10.866,0 14,1.1641 14,2.6 C14,4.0359 10.866,5.2 7,5.2 C3.134,5.2 0,4.0359 0,2.6 Z" id="Ellipse13"></path>
                    </g>
                </g>
                <g id="Spark-plugs" transform="translate(253.000000, 342.000000)" stroke="#000000" stroke-width="4" fill="#FFFFFF" fill-rule="nonzero">
                    <path d="M0,3.6818 C0,1.6484 1.6789,0 3.75,0 L11.25,0 C13.3211,0 15,1.6484 15,3.6818 L15,23.3182 C15,25.3516 13.3211,27 11.25,27 L3.75,27 C1.6789,27 0,25.3516 0,23.3182 L0,3.6818 Z" id="Shape"></path>
                    <path d="M0,2.7 C0,1.2088 3.3578,0 7.5,0 C11.6422,0 15,1.2088 15,2.7 C15,4.1912 11.6422,5.4 7.5,5.4 C3.3578,5.4 0,4.1912 0,2.7 Z" id="Ellipse14"></path>
                    <path d="M49,3.6818 C49,1.6484 50.6789,0 52.75,0 L60.25,0 C62.3211,0 64,1.6484 64,3.6818 L64,23.3182 C64,25.3516 62.3211,27 60.25,27 L52.75,27 C50.6789,27 49,25.3516 49,23.3182 L49,3.6818 Z" id="Shape"></path>
                    <path d="M49,2.7 C49,1.2088 52.3578,0 56.5,0 C60.6422,0 64,1.2088 64,2.7 C64,4.1912 60.6422,5.4 56.5,5.4 C52.3578,5.4 49,4.1912 49,2.7 Z" id="Ellipse15"></path>
                    <path d="M76,3.6818 C76,1.6484 77.6789,0 79.75,0 L87.25,0 C89.3211,0 91,1.6484 91,3.6818 L91,23.3182 C91,25.3516 89.3211,27 87.25,27 L79.75,27 C77.6789,27 76,25.3516 76,23.3182 L76,3.6818 Z" id="Shape"></path>
                    <path d="M76,2.7 C76,1.2088 79.3578,0 83.5,0 C87.6422,0 91,1.2088 91,2.7 C91,4.1912 87.6422,5.4 83.5,5.4 C79.3578,5.4 76,4.1912 76,2.7 Z" id="Ellipse16"></path>
                    <path d="M116,3.6818 C116,1.6484 117.6789,0 119.75,0 L127.25,0 C129.3211,0 131,1.6484 131,3.6818 L131,23.3182 C131,25.3516 129.3211,27 127.25,27 L119.75,27 C117.6789,27 116,25.3516 116,23.3182 L116,3.6818 Z" id="Shape"></path>
                    <path d="M116,2.7 C116,1.2088 119.3578,0 123.5,0 C127.6422,0 131,1.2088 131,2.7 C131,4.1912 127.6422,5.4 123.5,5.4 C119.3578,5.4 116,4.1912 116,2.7 Z" id="Ellipse17"></path>
                </g>
                <g id="Earth" transform="translate(1132.000000, 251.000000)" stroke-width="4" stroke="#00CC00">
                    <polyline id="Shape" points="0 75 50 75 50 14"></polyline>
                    <path d="M34,13 L66,13" id="Shape"></path>
                    <path d="M37,7 L63,7" id="Shape"></path>
                    <path d="M42,0 L58,0" id="Shape"></path>
                </g>
                <path d="M1053,330 C1049.7576,330.4243 989,329 989,329 L965,314 L830,313 L792,283 L521,285 L476,255 L330,255 L329,270" id="Battery-to-coil" stroke="#00CC00" stroke-width="4"></path>
                <polyline id="Right-headligh-power" stroke="#00CC00" stroke-width="4" points="71 87 113 87 114 256 338 255"></polyline>
                <polyline id="Left-headlight-power" stroke="#00CC00" stroke-width="4" points="72 715 114 714 115 256"></polyline>
                <rect id="Fuse-box" stroke="#000000" stroke-width="4" fill="#FFFFFF" fill-rule="nonzero" x="206" y="247" width="21" height="24"></rect>
                <polyline id="Power-to-boot" stroke="#00CC00" stroke-width="4" points="206 265 182 265 183 243 473 243 574 306 788 304 903 199 1485 198 1642 158 1642 40 1813 40"></polyline>
                <polyline id="Power-boot" stroke="#00CC00" stroke-width="4" points="1746 40 1750 763 1785 764"></polyline>
                <g id="right-taillight" transform="translate(1783.000000, 0.000000)" stroke-width="4" stroke="#000000" fill="#FFFFFF" fill-rule="nonzero">
                    <polygon id="Shape" points="0 0 28 0 38 11.3333 38 47.1515 28 58 0 58"></polygon>
                    <polygon id="Shape" points="28 0 38 11.3333 38 47.1515 28 58"></polygon>
                </g>
                <g id="left-taillight" transform="translate(1783.000000, 740.000000)" stroke-width="4" stroke="#000000" fill="#FFFFFF" fill-rule="nonzero">
                    <polygon id="Shape" points="0 0 28 0 38 11.3333 38 47.1515 28 58 0 58"></polygon>
                    <polygon id="Shape" points="28 0 38 11.3333 38 47.1515 28 58"></polygon>
                </g>
                <g id="Coil-to-spark-power" transform="translate(259.000000, 223.000000)" stroke="#00CC00" stroke-width="4">
                    <path d="M0,121 C4.394,122.5757 25.7273,-9.6364 136,106" id="Shape"></path>
                    <path d="M45,119 C67.9091,139.7879 1.2424,18.6364 142,103" id="Shape"></path>
                    <path d="M76,119 C82.1515,98.2424 111.9394,52.5757 140,104 L71,0 L71,40" id="Shape"></path>
                    <path d="M114,117 C127,138 190,36 142,103" id="Shape"></path>
                </g>
                <path d="M224,306 L238,306 L238,330 L224,330 L224,306 Z M182,296 L224,296 L224,342 L182,342 L182,296 Z" id="alternator" stroke="#000000" stroke-width="4" fill="#FFFFFF" fill-rule="nonzero"></path>
            </g>
        </g>
    </g>
</svg>